<svg xmlns="http://www.w3.org/2000/svg" viewBox="0 0 16 16"><path fill="#818181" d="M15.9 6.6c-.1-.1-.1-.1-.2-.1l-1.9-.3c-.1-.3-.2-.7-.4-1 .1-.2.3-.4.6-.7.2-.3.4-.5.5-.7.1-.1.1-.2.1-.2 0-.1 0-.2-.1-.2-.2-.4-.8-.9-1.7-1.8-.1-.1-.2-.1-.3-.1-.1 0-.2 0-.2.1l-1.5 1.1c-.3-.1-.6-.3-.9-.4l-.4-2c0-.1 0-.2-.1-.2-.1-.1-.1-.1-.2-.1H6.8c-.2 0-.3.1-.3.3-.1.3-.2 1-.3 1.9-.4.1-.7.3-1 .4L3.8 1.5c-.1-.1-.2-.1-.3-.1-.2 0-.5.2-1 .7-.5.5-.8.9-1 1.2-.1.1-.1.1-.1.2s0 .2.1.2c.5.6.8 1 1.1 1.4-.2.3-.3.6-.4 1l-1.9.3c-.1 0-.1.1-.2.1-.1.2-.1.2-.1.3v2.3c0 .1 0 .2.1.2.1.1.1.1.2.1l1.9.3c.1.3.2.7.4 1-.1.2-.3.4-.6.7-.2.3-.4.5-.5.7-.1.1-.1.2-.1.2 0 .1 0 .2.1.2.3.4.8 1 1.7 1.8.1.1.2.1.3.1.1 0 .2 0 .3-.1l1.5-1.1c.3.1.6.3.9.4l.3 1.9c0 .1 0 .2.1.2.1.3.1.3.2.3h2.3c.2 0 .3-.1.4-.3.1-.3.2-1 .3-1.9.3-.1.6-.2.9-.4l1.4 1.1c.1.1.2.1.3.1.2 0 .5-.2 1-.7.5-.5.8-.9 1-1.1.1-.1.1-.1.1-.2s0-.2-.1-.3c-.5-.6-.9-1.1-1.1-1.4.1-.3.3-.6.4-.9l1.9-.3c.1 0 .2-.1.2-.1.2-.3.2-.3.2-.4V6.9c0-.1 0-.2-.1-.3zM8 10.7A2.732 2.732 0 0 1 5.3 8 2.732 2.732 0 0 1 8 5.3c.7 0 1.4.3 1.9.8s.8 1.1.8 1.9A2.732 2.732 0 0 1 8 10.7z"/></svg>