<?xml version="1.0" encoding="utf-8"?>
<svg version="1.1" xmlns="http://www.w3.org/2000/svg" xmlns:xlink="http://www.w3.org/1999/xlink" x="0px" y="0px"
	 viewBox="0 0 839.3 843.2" style="enable-background:new 0 0 839.3 843.2;" xml:space="preserve">
<style type="text/css">
	.st0{fill:#818181;}
</style>
<path class="st0" d="M794.6,0.8l-750-0.3C18.6-3.2,0,15.4,0,45.1v89.2c0,22.3,22.3,44.7,44.6,44.6l750,0.3
	c22.3,0,44.7-22.3,44.6-44.6V45.4C839.2,23,816.9,0.7,794.6,0.8z"/>
<path class="st0" d="M794.6,664.7l-750-0.3C18.6,660.8,0,679.4,0,709.1v89.2c0,22.3,22.3,44.7,44.6,44.6l750,0.3
	c22.3,0,44.7-22.3,44.6-44.6v-89.2C839.2,687,816.9,664.7,794.6,664.7z"/>
<path class="st0" d="M794.6,332.7l-750-0.3C18.6,328.8,0,347.4,0,377.1v89.2c0,22.3,22.3,44.7,44.6,44.6l750,0.3
	c22.3,0,44.7-22.3,44.6-44.6v-89.2C839.2,355,816.9,332.7,794.6,332.7z"/>
</svg>
